<?xml version="1.0" encoding="UTF-8"?>
<svg width="627px" height="599px" viewBox="0 0 627 599" version="1.1" xmlns="http://www.w3.org/2000/svg" xmlns:xlink="http://www.w3.org/1999/xlink">
    <!-- Generator: Sketch 55.2 (78181) - https://sketchapp.com -->
    <title>编组@2x</title>
    <desc>Created with Sketch.</desc>
    <defs>
        <path d="M32.6915105,17.7115676 L0.494405594,0.00526126126 C8.27493706,4.28333333 17.6050769,5.68698649 28.6472727,4.11769369 L60.8457902,21.8225721" id="path-1"></path>
        <path d="M32.6915105,17.7115676 L0.494405594,0.00526126126 C8.27493706,4.28333333 17.6050769,5.68698649 28.6472727,4.11769369 L60.8457902,21.8225721" id="path-3"></path>
        <path d="M32.6915105,17.7115676 L0.494405594,0.00526126126 C8.27493706,4.28333333 17.6050769,5.68698649 28.6472727,4.11769369 L60.8457902,21.8225721" id="path-5"></path>
        <path d="M27.4818881,0.819630631 L59.678993,18.5259369 C82.9669091,31.3315946 92.3719161,69.8999279 92.2589091,131.677802 C92.1077622,214.097802 76.7006713,256.448716 32.594042,262.714464 L0.395524476,245.009586 C44.5035664,238.74241 59.9106573,196.391495 60.0603916,113.971495" id="path-7"></path>
        <path d="M27.4818881,0.819630631 L59.678993,18.5259369 C82.9669091,31.3315946 92.3719161,69.8999279 92.2589091,131.677802 C92.1077622,214.097802 76.7006713,256.448716 32.594042,262.714464 L0.395524476,245.009586 C44.5035664,238.74241 59.9106573,196.391495 60.0603916,113.971495" id="path-9"></path>
        <path d="M27.4818881,0.819630631 L59.678993,18.5259369 C82.9669091,31.3315946 92.3719161,69.8999279 92.2589091,131.677802 C92.1077622,214.097802 76.7006713,256.448716 32.594042,262.714464 L0.395524476,245.009586 C44.5035664,238.74241 59.9106573,196.391495 60.0603916,113.971495" id="path-11"></path>
        <path d="M27.4818881,0.819630631 L59.678993,18.5259369 C82.9669091,31.3315946 92.3719161,69.8999279 92.2589091,131.677802 C92.1077622,214.097802 76.7006713,256.448716 32.594042,262.714464 L0.395524476,245.009586 C44.5035664,238.74241 59.9106573,196.391495 60.0603916,113.971495" id="path-13"></path>
        <path d="M27.4818881,0.819630631 L59.678993,18.5259369 C82.9669091,31.3315946 92.3719161,69.8999279 92.2589091,131.677802 C92.1077622,214.097802 76.7006713,256.448716 32.594042,262.714464 L0.395524476,245.009586 C44.5035664,238.74241 59.9106573,196.391495 60.0603916,113.971495" id="path-15"></path>
        <path d="M27.4818881,0.819630631 L59.678993,18.5259369 C82.9669091,31.3315946 92.3719161,69.8999279 92.2589091,131.677802 C92.1077622,214.097802 76.7006713,256.448716 32.594042,262.714464 L0.395524476,245.009586 C44.5035664,238.74241 59.9106573,196.391495 60.0603916,113.971495" id="path-17"></path>
        <path d="M27.4818881,0.819630631 L59.678993,18.5259369 C82.9669091,31.3315946 92.3719161,69.8999279 92.2589091,131.677802 C92.1077622,214.097802 76.7006713,256.448716 32.594042,262.714464 L0.395524476,245.009586 C44.5035664,238.74241 59.9106573,196.391495 60.0603916,113.971495" id="path-19"></path>
        <path d="M27.4818881,0.819630631 L59.678993,18.5259369 C82.9669091,31.3315946 92.3719161,69.8999279 92.2589091,131.677802 C92.1077622,214.097802 76.7006713,256.448716 32.594042,262.714464 L0.395524476,245.009586 C44.5035664,238.74241 59.9106573,196.391495 60.0603916,113.971495" id="path-21"></path>
        <path d="M43.0796783,7.00255856 L75.2767832,24.7074369 C63.8277622,18.4117027 49.8247832,16.5254099 33.0926853,18.9029099 L0.89558042,1.1966036" id="path-23"></path>
        <path d="M43.0796783,7.00255856 L75.2767832,24.7074369 C63.8277622,18.4117027 49.8247832,16.5254099 33.0926853,18.9029099 L0.89558042,1.1966036" id="path-25"></path>
        <path d="M43.0796783,7.00255856 L75.2767832,24.7074369 C63.8277622,18.4117027 49.8247832,16.5254099 33.0926853,18.9029099 L0.89558042,1.1966036" id="path-27"></path>
        <path d="M73.600042,308.524797 L41.4029371,290.818491 C13.2232308,275.324045 0.504293706,233.114495 0.634657418,162.01368 C0.819300699,62.0258829 27.7502797,8.4228964 85.6508252,0.196603604 L117.84793,17.9029099 C59.9473846,26.1292027 33.0164056,79.7321892 32.8327692,179.719986" id="path-29"></path>
        <path d="M73.600042,308.524797 L41.4029371,290.818491 C13.2232308,275.324045 0.504293706,233.114495 0.634657418,162.01368 C0.819300699,62.0258829 27.7502797,8.4228964 85.6508252,0.196603604 L117.84793,17.9029099 C59.9473846,26.1292027 33.0164056,79.7321892 32.8327692,179.719986" id="path-31"></path>
        <path d="M73.600042,308.524797 L41.4029371,290.818491 C13.2232308,275.324045 0.504293706,233.114495 0.634657418,162.01368 C0.819300699,62.0258829 27.7502797,8.4228964 85.6508252,0.196603604 L117.84793,17.9029099 C59.9473846,26.1292027 33.0164056,79.7321892 32.8327692,179.719986" id="path-33"></path>
        <path d="M73.600042,308.524797 L41.4029371,290.818491 C13.2232308,275.324045 0.504293706,233.114495 0.634657418,162.01368 C0.819300699,62.0258829 27.7502797,8.4228964 85.6508252,0.196603604 L117.84793,17.9029099 C59.9473846,26.1292027 33.0164056,79.7321892 32.8327692,179.719986" id="path-35"></path>
        <path d="M73.600042,308.524797 L41.4029371,290.818491 C13.2232308,275.324045 0.504293706,233.114495 0.634657418,162.01368 C0.819300699,62.0258829 27.7502797,8.4228964 85.6508252,0.196603604 L117.84793,17.9029099 C59.9473846,26.1292027 33.0164056,79.7321892 32.8327692,179.719986" id="path-37"></path>
        <path d="M73.600042,308.524797 L41.4029371,290.818491 C13.2232308,275.324045 0.504293706,233.114495 0.634657418,162.01368 C0.819300699,62.0258829 27.7502797,8.4228964 85.6508252,0.196603604 L117.84793,17.9029099 C59.9473846,26.1292027 33.0164056,79.7321892 32.8327692,179.719986" id="path-39"></path>
        <path d="M73.600042,308.524797 L41.4029371,290.818491 C13.2232308,275.324045 0.504293706,233.114495 0.634657418,162.01368 C0.819300699,62.0258829 27.7502797,8.4228964 85.6508252,0.196603604 L117.84793,17.9029099 C59.9473846,26.1292027 33.0164056,79.7321892 32.8327692,179.719986" id="path-41"></path>
        <path d="M73.600042,308.524797 L41.4029371,290.818491 C13.2232308,275.324045 0.504293706,233.114495 0.634657418,162.01368 C0.819300699,62.0258829 27.7502797,8.4228964 85.6508252,0.196603604 L117.84793,17.9029099 C59.9473846,26.1292027 33.0164056,79.7321892 32.8327692,179.719986" id="path-43"></path>
        <path d="M32.9430596,79.3157143 L0.791344371,61.6028571 C0.860463576,23.5114286 1.63064901,1.53571429 1.67155629,0.38 L33.8232715,18.0928571" id="path-45"></path>
        <path d="M32.1714636,78.97 L0.0197483444,61.2571429 C0.0902781457,23.1657143 0.849178808,1.19142857 0.888675497,0.0342857143 L33.0403907,17.7485714" id="path-47"></path>
    </defs>
    <g id="页面1" stroke="none" stroke-width="1" fill="none" fill-rule="evenodd">
        <g id="编组">
            <g transform="translate(212.000000, 32.000000)">
                <g transform="translate(56.503497, 269.450450)">
                    <g>
                        <mask id="mask-2" fill="white">
                            <use xlink:href="#path-1"></use>
                        </mask>
                        <g id="Clip-2"></g>
                        <path d="M32.691793,17.7108536 L0.494688112,0.00597522523 C0.956604196,0.258718468 1.42275804,0.502894144 1.89597483,0.735646396 L34.0930797,18.4419527 C33.6212755,18.2077725 33.1537091,17.9650248 32.691793,17.7108536" id="Fill-1" fill="#5F5F5F" mask="url(#mask-2)"></path>
                    </g>
                    <g>
                        <mask id="mask-4" fill="white">
                            <use xlink:href="#path-3"></use>
                        </mask>
                        <g id="Clip-4"></g>
                        <path d="M34.0933622,18.4415243 L1.89625734,0.736645946 C4.17476084,1.86328108 6.5803972,2.75288018 9.11881678,3.40544324 L41.3159217,21.1103216 C38.7789147,20.4577586 36.3718657,19.5681595 34.0933622,18.4415243" id="Fill-3" fill="#626262" mask="url(#mask-4)"></path>
                    </g>
                    <g>
                        <mask id="mask-6" fill="white">
                            <use xlink:href="#path-5"></use>
                        </mask>
                        <g id="Clip-6"></g>
                        <path d="M41.3162042,21.1106072 L9.1190993,3.40572883 C14.9248336,4.89791351 21.4199105,5.14351712 28.6467077,4.11826486 L60.8452252,21.8231432 C53.6170154,22.8498234 47.1219385,22.6027919 41.3162042,21.1106072" id="Fill-5" fill="#656565" mask="url(#mask-6)"></path>
                    </g>
                </g>
                <g transform="translate(84.755245, 28.558559)">
                    <g>
                        <mask id="mask-8" fill="white">
                            <use xlink:href="#path-7"></use>
                        </mask>
                        <g id="Clip-8"></g>
                        <path d="M32.5937594,262.715035 L0.395241958,245.010157 C6.95106014,244.07772 12.871214,242.349927 18.2023189,239.812499 L50.3994238,257.517377 C45.0683189,260.056233 39.148165,261.784026 32.5937594,262.715035" id="Fill-7" fill="#656565" mask="url(#mask-8)"></path>
                    </g>
                    <g>
                        <mask id="mask-10" fill="white">
                            <use xlink:href="#path-9"></use>
                        </mask>
                        <g id="Clip-10"></g>
                        <path d="M50.4001301,257.517949 L18.2016126,239.81307 C20.7682839,238.589336 23.1993469,237.181399 25.4976266,235.58212 L57.6947315,253.286998 C55.3964517,254.88485 52.9653888,256.295642 50.4001301,257.517949" id="Fill-9" fill="#626262" mask="url(#mask-10)"></path>
                    </g>
                    <g>
                        <mask id="mask-12" fill="white">
                            <use xlink:href="#path-11"></use>
                        </mask>
                        <g id="Clip-12"></g>
                        <path d="M57.6948727,253.287141 L25.4977678,235.582263 C27.3228308,234.311407 29.064551,232.922033 30.7271664,231.412713 L62.9242713,249.117591 C61.2616559,250.628339 59.5199357,252.016285 57.6948727,253.287141" id="Fill-11" fill="#5F5F5F" mask="url(#mask-12)"></path>
                    </g>
                    <g>
                        <mask id="mask-14" fill="white">
                            <use xlink:href="#path-13"></use>
                        </mask>
                        <g id="Clip-14"></g>
                        <path d="M62.9244126,249.117591 L30.7273077,231.412713 C32.2769161,230.004776 33.7558951,228.494028 35.1656573,226.877614 L67.3641748,244.582492 C65.953,246.198907 64.474021,247.711082 62.9244126,249.117591" id="Fill-13" fill="#5C5C5C" mask="url(#mask-14)"></path>
                    </g>
                    <g>
                        <mask id="mask-16" fill="white">
                            <use xlink:href="#path-15"></use>
                        </mask>
                        <g id="Clip-16"></g>
                        <path d="M67.3636098,244.582921 L35.1650923,226.878042 C36.638421,225.190232 38.0368825,223.388186 39.3647147,221.470479 L71.5618196,239.176786 C70.2339874,241.093065 68.8355259,242.89511 67.3636098,244.582921" id="Fill-15" fill="#595959" mask="url(#mask-16)"></path>
                    </g>
                    <g>
                        <mask id="mask-18" fill="white">
                            <use xlink:href="#path-17"></use>
                        </mask>
                        <g id="Clip-18"></g>
                        <path d="M71.5613958,239.1765 L39.3642909,221.471622 C40.9040112,219.245482 42.3462629,216.866554 43.6952839,214.330554 L75.8923888,232.035432 C74.5433678,234.571432 73.1011161,236.95036 71.5613958,239.1765" id="Fill-17" fill="#565656" mask="url(#mask-18)"></path>
                    </g>
                    <g>
                        <mask id="mask-20" fill="white">
                            <use xlink:href="#path-19"></use>
                        </mask>
                        <g id="Clip-20"></g>
                        <path d="M75.8929538,232.035432 L43.695849,214.330554 C45.6649958,210.630793 47.4349678,206.599752 49.0170657,202.231721 L81.2155832,219.936599 C79.6306601,224.304631 77.8621007,228.335671 75.8929538,232.035432" id="Fill-19" fill="#535353" mask="url(#mask-20)"></path>
                    </g>
                    <g>
                        <mask id="mask-22" fill="white">
                            <use xlink:href="#path-21"></use>
                        </mask>
                        <g id="Clip-22"></g>
                        <path d="M81.2150182,219.93717 L49.0165007,202.232292 C56.7377035,180.923323 59.9923049,151.63081 60.0601091,113.972067 C60.1745287,52.1941928 50.7695217,13.6258595 27.4816056,0.820201802 L59.6787105,18.5250802 C82.9666266,31.3321658 92.3716336,69.8990712 92.2586266,131.676945 C92.1894098,169.335688 88.936221,198.628202 81.2150182,219.93717" id="Fill-21" fill="#505050" mask="url(#mask-22)"></path>
                    </g>
                </g>
                <g transform="translate(84.755245, 0.000000)">
                    <g>
                        <mask id="mask-24" fill="white">
                            <use xlink:href="#path-23"></use>
                        </mask>
                        <g id="Clip-24"></g>
                        <path d="M33.0932503,18.9026243 L0.896145455,1.19774595 C12.1389287,-0.400105405 22.1499357,-0.0731099099 30.9814322,2.22442613 L63.1785371,19.9293045 C54.3470406,17.6331964 44.3360336,17.304773 33.0932503,18.9026243" id="Fill-23" fill="#656565" mask="url(#mask-24)"></path>
                    </g>
                    <g>
                        <mask id="mask-26" fill="white">
                            <use xlink:href="#path-25"></use>
                        </mask>
                        <g id="Clip-26"></g>
                        <path d="M63.1782545,19.9295901 L30.9811497,2.22471171 C34.5521706,3.15286486 37.9310797,4.40515766 41.1221147,5.98016216 L73.3192196,23.6864685 C70.1295972,22.110036 66.7492755,20.8591712 63.1782545,19.9295901" id="Fill-25" fill="#626262" mask="url(#mask-26)"></path>
                    </g>
                    <g>
                        <mask id="mask-28" fill="white">
                            <use xlink:href="#path-27"></use>
                        </mask>
                        <g id="Clip-28"></g>
                        <path d="M73.3187958,23.6863257 L41.1216909,5.9814473 C41.7827818,6.30844279 42.4353972,6.64828964 43.0795371,7.00241577 L75.276642,24.7072941 C74.6325021,24.353168 73.9798867,24.0133212 73.3187958,23.6863257" id="Fill-27" fill="#5F5F5F" mask="url(#mask-28)"></path>
                    </g>
                </g>
                <g transform="translate(0.000000, 1.000000)">
                    <g>
                        <mask id="mask-30" fill="white">
                            <use xlink:href="#path-29"></use>
                        </mask>
                        <g id="Clip-30"></g>
                        <path d="M73.6001832,308.524226 L41.4030783,290.819348 C13.223372,275.323474 0.504434965,233.113924 0.635805594,162.013109 C0.70926014,121.351433 5.20835105,88.3591586 14.4141832,62.9720279 L46.6127007,80.6769063 C37.4054559,106.065465 32.9077776,139.056312 32.8329105,179.719415 C32.7015399,250.820231 45.4204769,293.026924 73.6001832,308.524226" id="Fill-29" fill="#505050" mask="url(#mask-30)"></path>
                    </g>
                    <g>
                        <mask id="mask-32" fill="white">
                            <use xlink:href="#path-31"></use>
                        </mask>
                        <g id="Clip-32"></g>
                        <path d="M46.6121357,80.6770491 L14.4150308,62.9721707 C16.6596322,56.7792473 19.1853385,51.038977 21.9963874,45.749932 L54.1934923,63.4548104 C51.3838559,68.7438554 48.8581497,74.4841257 46.6121357,80.6770491" id="Fill-31" fill="#535353" mask="url(#mask-32)"></path>
                    </g>
                    <g>
                        <mask id="mask-34" fill="white">
                            <use xlink:href="#path-33"></use>
                        </mask>
                        <g id="Clip-34"></g>
                        <path d="M54.1937748,63.4555243 L21.9966699,45.7506459 C23.9940685,41.9880559 26.1369636,38.4553622 28.4239427,35.1511369 L60.6210476,52.8560153 C58.3340685,56.1616685 56.1911734,59.6943622 54.1937748,63.4555243" id="Fill-33" fill="#565656" mask="url(#mask-34)"></path>
                    </g>
                    <g>
                        <mask id="mask-36" fill="white">
                            <use xlink:href="#path-35"></use>
                        </mask>
                        <g id="Clip-36"></g>
                        <path d="M60.620765,52.8561581 L28.4236601,35.1512797 C30.4055203,32.2868563 32.4975622,29.5923563 34.699786,27.0706356 L66.8968909,44.775514 C64.6960797,47.2986626 62.6026252,49.9917347 60.620765,52.8561581" id="Fill-35" fill="#595959" mask="url(#mask-36)"></path>
                    </g>
                    <g>
                        <mask id="mask-38" fill="white">
                            <use xlink:href="#path-37"></use>
                        </mask>
                        <g id="Clip-38"></g>
                        <path d="M66.8973147,44.7759423 L34.7002098,27.071064 C36.804965,24.6592937 39.010014,22.4045955 41.3181818,20.3041135 L73.5152867,38.0104198 C71.2085315,40.1080459 69.0020699,42.3641721 66.8973147,44.7759423" id="Fill-37" fill="#5C5C5C" mask="url(#mask-38)"></path>
                    </g>
                    <g>
                        <mask id="mask-40" fill="white">
                            <use xlink:href="#path-39"></use>
                        </mask>
                        <g id="Clip-40"></g>
                        <path d="M73.5147217,38.0099914 L41.3176168,20.3051131 C43.8065958,18.0404194 46.4128196,15.9570725 49.1405259,14.0550725 L81.3376308,31.7613788 C78.6113371,33.6619509 76.0051133,35.7452977 73.5147217,38.0099914" id="Fill-39" fill="#5F5F5F" mask="url(#mask-40)"></path>
                    </g>
                    <g>
                        <mask id="mask-42" fill="white">
                            <use xlink:href="#path-41"></use>
                        </mask>
                        <g id="Clip-42"></g>
                        <path d="M81.337772,31.7608077 L49.1406671,14.0559293 C52.636821,11.6170284 56.3293245,9.47799234 60.2195902,7.63453739 L92.4181077,25.3394158 C88.5264294,27.1814428 84.8353385,29.3219068 81.337772,31.7608077" id="Fill-41" fill="#626262" mask="url(#mask-42)"></path>
                    </g>
                    <g>
                        <mask id="mask-44" fill="white">
                            <use xlink:href="#path-43"></use>
                        </mask>
                        <g id="Clip-44"></g>
                        <path d="M92.4176839,25.3399869 L60.2191664,7.63510856 C67.9149427,3.99103649 76.3862294,1.51358153 85.6513902,0.197031982 L117.848495,17.9033383 C108.584747,19.2184599 100.11346,21.6959149 92.4176839,25.3399869" id="Fill-43" fill="#656565" mask="url(#mask-44)"></path>
                    </g>
                </g>
                <path d="M117.349004,291.273594 C161.457046,285.006418 176.862724,242.655504 177.014882,160.235504 C177.165018,77.8155036 160.373592,36.7068865 116.27685,42.9712063 C72.1815217,49.2369541 56.7631301,91.576445 56.6109728,173.996445 C56.4608364,256.416445 73.2522629,297.537914 117.349004,291.273594 M117.84906,18.9020532 C175.762319,10.6757604 200.977004,53.5250216 200.794363,153.512819 C200.609731,253.500616 173.678752,307.103603 115.778207,315.329895 C57.8748364,323.55476 32.6488503,280.708355 32.8314917,180.71913 C33.0161231,80.7313324 59.9471021,27.1283459 117.84906,18.9020532" id="Fill-45" fill="#868686"></path>
            </g>
            <g transform="translate(0.000000, 59.000000)">
                <polygon id="Fill-47" fill="#6C6C6C" points="173.451119 211.873571 141.299404 194.159286 179.976536 188.655 212.129662 206.367857"></polygon>
                <polygon id="Fill-49" fill="#4E4E4E" points="151.063409 309.213143 118.911693 291.500286 119.041468 220.344571 151.194594 238.057429"></polygon>
                <polygon id="Fill-51" fill="#4E4E4E" points="151.236348 215.034857 119.084632 197.322 119.280705 90.1748571 151.432421 107.887714"></polygon>
                <polygon id="Fill-53" fill="#6C6C6C" points="57.0439391 228.441714 24.8922238 210.728857 119.083363 197.321714 151.236489 215.034571"></polygon>
                <g transform="translate(118.490066, 28.571429)">
                    <mask id="mask-46" fill="white">
                        <use xlink:href="#path-45"></use>
                    </mask>
                    <g id="Clip-56"></g>
                    <path d="M32.9424954,79.3164286 L0.790780132,61.6035714 C0.859899338,23.5121429 1.63008477,1.53642857 1.67099205,0.379285714 L33.8241179,18.0935714 C33.7832106,19.2492857 33.0130252,41.225 32.9424954,79.3164286" id="Fill-55" fill="#505050" mask="url(#mask-46)"></path>
                </g>
                <polygon id="Fill-57" fill="#4D4D4D" points="38.2446437 254.133714 6.09292848 236.420857 0.000564238411 213.863714 32.1522795 231.576571"></polygon>
                <polygon id="Fill-59" fill="#5B5B5B" points="32.1518563 231.576429 0.000141059603 213.863571 109.868644 4.89214286 142.02177 22.6064286"></polygon>
                <path d="M151.432562,107.887857 C151.503091,69.7964286 152.273277,47.8207143 152.314184,46.665 L150.787919,46.8807143 C150.172899,48.1835714 138.48329,72.9092857 122.351714,103.655 L57.0439391,228.442143 L151.236489,215.035 L151.432562,107.887857 L151.432562,107.887857 Z M173.450555,211.873571 L212.129098,206.367857 L212.08678,229.390714 L173.409648,234.895 L173.278462,306.052143 L151.062985,309.213571 L151.194171,238.057857 L38.2449258,254.133571 L32.151151,231.576429 L142.021065,22.6064286 L173.806025,18.0821429 L173.450555,211.873571 Z" id="Fill-61" fill="#868686"></path>
                <polygon id="Fill-63" fill="#6C6C6C" points="142.021347 22.606 109.869632 4.89314286 141.654592 0.368857143 173.806307 18.0817143"></polygon>
            </g>
            <g transform="translate(414.000000, 0.000000)">
                <polygon id="Fill-65" fill="#6C6C6C" points="174.079963 211.528286 141.928248 193.815429 180.60538 188.309714 212.758506 206.022571"></polygon>
                <polygon id="Fill-67" fill="#4E4E4E" points="151.703255 308.867143 119.55154 291.154286 119.682725 219.998571 151.83444 237.711429"></polygon>
                <polygon id="Fill-69" fill="#4E4E4E" points="151.876899 214.688857 119.723774 196.976 119.921257 89.8288571 152.072972 107.541714"></polygon>
                <polygon id="Fill-71" fill="#6C6C6C" points="57.6727828 228.097143 25.5210675 210.384286 119.723491 196.975714 151.876617 214.688571"></polygon>
                <g transform="translate(119.900662, 28.571429)">
                    <mask id="mask-48" fill="white">
                        <use xlink:href="#path-47"></use>
                    </mask>
                    <g id="Clip-74"></g>
                    <path d="M32.1718868,78.9704286 L0.0201715232,61.2575714 C0.0907013245,23.1661429 0.849601987,1.19185714 0.889098675,0.0347142857 L33.0408139,17.749 C33.0013172,18.9047143 32.2424166,40.879 32.1718868,78.9704286" id="Fill-73" fill="#505050" mask="url(#mask-48)"></path>
                </g>
                <polygon id="Fill-75" fill="#4D4D4D" points="38.8734874 253.789714 6.72177219 236.076857 0.629407947 213.519714 32.7811232 231.232571"></polygon>
                <polygon id="Fill-77" fill="#5B5B5B" points="32.7807 231.232571 0.628984768 213.519714 110.498899 4.54828571 142.650614 22.2611429"></polygon>
                <path d="M152.072549,107.541857 C152.143079,69.4504286 152.901979,47.4761429 152.941476,46.3204286 L151.416622,46.5361429 C150.801602,47.839 139.111993,72.5647143 122.981827,103.310429 L57.6726417,228.097571 L151.876476,214.689 L152.072549,107.541857 L152.072549,107.541857 Z M174.080668,211.529 L212.757801,206.023286 L212.715483,229.046143 L174.03694,234.551857 L173.907165,305.707571 L151.702973,308.867571 L151.834158,237.711857 L38.8736285,253.790429 L32.7812642,231.231857 L142.649768,22.2618571 L174.436138,17.7375714 L174.080668,211.529 Z" id="Fill-79" fill="#868686"></path>
                <polygon id="Fill-81" fill="#6C6C6C" points="142.650191 22.2614286 110.498475 4.54857143 142.283436 0.0242857143 174.435151 17.7371429"></polygon>
            </g>
            <path d="M138.255291,521.220779 C137.357143,522 136.972222,522.649351 136.972222,523.168831 C136.972222,523.816755 137.100529,524.337662 137.357143,524.727273 C137.87037,525.766234 138.768519,526.285714 139.794974,526.285714 C140.179894,526.285714 140.821429,526.025974 141.59127,525.506494 C145.953704,523.168831 149.80291,519.792208 153.395503,515.506494 C156.474868,511.350649 158.784392,507.064935 160.452381,502.519481 C160.837302,501.219352 161.093915,499.922078 161.093915,498.493506 C160.965608,496.155844 159.939153,494.987013 158.01455,494.855716 C156.859788,494.855716 155.833333,495.505066 155.063492,496.545455 C154.806878,499.662338 153.652116,503.428571 151.342593,507.582988 C148.263228,512.12987 143.900794,516.673898 138.255291,521.220779 Z M79.7473545,590.961039 C85.2645503,587.454545 90.2685185,583.428571 94.8875661,578.753247 C102.072751,572 108.231481,563.688312 113.107143,553.818182 C115.929894,548.103896 118.367725,542.128443 120.164021,535.896104 C120.420635,536.414157 120.677249,537.064935 121.062169,537.584416 C125.809524,546.675325 132.609788,555.766234 141.59127,564.857143 C146.210317,569.792208 151.085979,574.467532 156.218254,579.272727 C160.06746,582.909091 163.78836,586.673898 167.637566,590.311688 C168.407407,591.090909 169.305556,591.608962 170.332011,591.608962 C171.358466,591.350649 171.871693,590.571429 172,589.40117 C172,588.493506 171.743386,587.454545 171.486772,586.155844 C168.920635,582.519481 166.22619,579.142857 163.275132,576.024547 C158.656085,571.480519 155.705026,568.493506 154.165344,566.935065 C148.776455,561.74026 143.900794,556.805195 139.794974,551.87013 C135.945767,547.194805 131.968254,541.479092 127.862434,534.857143 C125.809524,531.479092 124.013228,528.883117 122.216931,527.064935 C123.5,520.180391 124.269841,513.038961 124.269841,505.636364 C124.269841,496.155844 123.371693,486.025974 121.832011,475.376623 C121.44709,473.168831 120.292328,472 118.367725,472 C116.058201,472.38961 115.031746,473.686885 115.031746,476.025974 C117.084656,487.712859 118.111111,498.233766 118.111111,507.324675 C118.111111,523.688312 114.518519,538.233766 107.589947,551.090909 C102.714286,559.662338 97.4537037,566.803768 92.0648148,572.518053 C87.4457672,577.974026 82.3134921,582.909091 76.4113757,587.323248 C75.3849206,588.103896 75,588.75182 75,589.272727 C75,590.961039 75.6415344,591.87013 77.0529101,592 C77.9510582,592 78.8492063,591.608962 79.7473545,590.961039 Z M103.099206,524.337662 C103.099206,523.558442 102.714286,523.037534 102.201058,522.779221 C97.8386243,519.53104 93.3478836,513.298701 88.728836,503.946625 C87.4457672,501.350649 86.2910053,499.532468 85.2645503,498.233766 C84.6230159,497.974026 84.1097884,497.712859 83.5965608,497.712859 C83.0833333,497.712859 82.6984127,497.844156 82.4417989,497.844156 C81.6719577,498.103896 81.1587302,498.362209 80.7738095,498.883117 C80.0039683,499.790781 79.6190476,500.440131 79.6190476,500.701299 C79.6190476,501.61039 80.0039683,502.38961 80.7738095,503.038961 C83.3399471,509.402597 86.4193122,514.467532 89.8835979,518.363636 C94.2460317,524.207792 97.5820106,527.064935 99.8915344,527.064935 C100.404762,527.064935 100.917989,526.935065 101.431217,526.673898 C101.687831,526.544027 102.072751,526.155844 102.585979,525.506494 C102.842593,525.245326 102.970899,524.857143 103.099206,524.337662 Z" id="Stroke-83" stroke="#DA1717"></path>
            <path d="M239.06549,492.733129 C238.935042,488.964734 238.549369,485.199193 237.775186,481.432226 C237.515708,480.003376 237.130035,478.574526 236.613913,477.145676 C243.581552,476.364876 250.031652,475.976617 255.838018,475.976617 C265.644325,475.976617 270.677926,478.834317 270.677926,484.419821 C270.677926,485.848671 270.032775,488.056893 268.999114,490.914593 C267.323137,495.071247 264.09596,499.486264 259.321837,504.163927 C254.160623,506.502045 248.484706,508.70884 242.289831,511.048385 C240.999527,511.566539 239.580193,511.957653 237.775186,512.477235 C238.28989,508.580372 238.678399,503.902709 238.935042,498.448528 C240.225345,498.18731 241.904158,497.537832 244.097674,496.75846 C253.515472,493.90076 260.741171,491.56407 265.644325,489.744106 C266.677985,489.355847 267.194107,488.836266 267.194107,488.185361 C267.194107,487.797102 266.934628,487.27752 266.677985,486.628043 C266.160446,486.236929 265.644325,485.978566 265.129621,485.848671 C263.581257,485.848671 261.516771,486.107034 259.063777,486.628043 C250.291131,488.964734 243.709165,490.914593 239.06549,492.733129 Z M270.935987,499.486264 C271.837782,498.318632 272.742412,497.019678 273.645624,495.459505 C275.83914,492.213547 277.000414,488.836266 277.258474,485.329089 C277.258474,482.729753 276.740935,480.52153 275.71011,478.704422 C274.161746,475.846722 271.708751,473.89829 268.613441,472.727804 C264.870143,471.170486 260.355498,470.261218 255.194284,470.261218 C250.805834,470.261218 246.676863,470.391114 242.54931,470.649477 C238.935042,470.910695 235.967344,471.170486 233.388154,471.42885 C232.870615,470.649477 232.096433,470.131323 231.323669,470 L230.419038,470 C229.130153,470.131323 228.225522,470.910695 227.710819,472.469441 C227.96888,473.377281 228.09791,474.156654 228.355971,474.806131 C229.517244,477.275572 230.549487,480.003376 231.58173,482.861076 C232.613972,486.886407 233.128676,490.784697 233.128676,494.421769 C233.128676,498.318632 233.001063,501.694486 232.743003,504.683509 C232.483524,507.541208 232.096433,510.787167 231.71076,514.165876 L231.71076,514.424239 C231.323669,514.555562 230.936578,514.685457 230.419038,514.815353 C229.517244,515.334934 228.999705,516.114307 228.999705,517.023575 C228.999705,518.062739 229.130153,518.972007 229.644856,519.491588 C230.031947,520.270961 230.677099,520.530752 231.451281,520.530752 C231.71076,520.530752 232.096433,520.400856 232.613972,520.139638 C239.709224,518.580893 247.065372,515.984412 254.807193,512.345912 C261.257293,509.229849 266.805598,506.242254 271.19263,503.254659 C271.708751,502.473859 271.966812,501.825809 272.09726,501.045009 C272.09726,500.65675 271.966812,500.395532 271.966812,500.137168 C271.708751,499.877378 271.323078,499.616159 270.935987,499.486264 Z M282.41827,556.770151 C283.451931,556.381892 284.226113,555.732415 285.000295,554.953042 C285.387386,554.17367 285.645447,553.394297 285.645447,552.874715 C285.645447,552.355134 285.127908,551.704229 284.097083,550.926284 C283.063422,550.536598 282.161628,550.276807 281.387446,550.276807 C280.353785,550.666493 279.064899,551.184647 277.774596,551.704229 C271.323078,554.042347 265.129621,555.990778 259.192807,557.549524 C259.321837,554.433461 259.452286,551.31597 259.452286,547.938689 C259.452286,545.730466 259.321837,543.522244 259.192807,541.443917 C259.452286,541.443917 259.710346,541.443917 259.966989,541.182699 C268.742471,539.36559 275.83914,537.157368 281.387446,534.559459 C282.28924,533.909982 282.806779,533.000714 282.806779,531.831655 C282.677749,530.27291 281.644088,529.363642 279.710051,528.84406 C272.871442,530.922387 265.774773,532.739495 258.547655,534.168345 C257.51683,528.973955 256.48317,524.945769 255.194284,522.08807 C254.160623,520.139638 253.129798,519.101902 252.096138,519.101902 C251.194343,519.101902 250.420161,519.621484 249.90404,520.530752 C249.000827,521.180229 248.612318,522.08807 248.612318,523.128661 C248.612318,523.778138 248.871797,524.945769 249.515531,526.765733 C250.549191,529.363642 251.323373,532.221341 251.968525,535.597195 C241.644679,537.547054 234.936519,538.454895 231.71076,538.454895 C230.677099,538.454895 230.291426,538.324999 230.291426,537.93674 C230.291426,537.287263 230.291426,534.947718 230.549487,530.922387 C230.549487,528.973955 229.517244,527.803469 227.710819,527.545105 L227.065667,527.545105 C225.517303,527.675001 224.614091,528.324478 224.096551,529.493537 C223.839908,530.922387 223.70946,532.481132 223.452817,534.03845 C223.194757,536.118204 223.194757,538.066636 223.194757,539.625381 C223.194757,541.443917 223.70946,542.872767 225.001182,543.782035 C225.904394,544.689875 226.936637,545.080989 228.09791,545.080989 L234.162337,545.080989 C240.354376,544.819771 246.547833,544.040398 252.87032,542.741444 C252.99935,545.600571 253.129798,548.458271 253.129798,551.31597 C253.129798,553.912451 252.99935,556.511788 252.99935,559.109696 C252.225168,559.369487 251.450986,559.497955 250.676804,559.627851 C242.80737,561.576282 235.58167,562.48555 228.872092,562.48555 C228.09791,562.48555 227.452758,562.48555 226.936637,562.227187 C225.128794,563.135027 224.226999,564.175618 223.968939,565.213354 L223.968939,566.642204 C223.968939,568.462168 224.741703,569.499904 226.548128,569.761122 L229.388214,569.761122 C232.483524,569.761122 235.710701,569.370008 238.935042,568.850427 C243.581552,568.071054 248.096197,567.163213 252.613677,565.992727 C252.355616,571.839449 251.968525,577.684744 251.450986,583.658506 L251.194343,583.658506 C246.033129,584.439306 240.484824,585.087356 234.807488,585.736833 C226.548128,586.647529 219.710937,587.686692 214.290244,588.855751 C210.936873,589.375333 209.259479,590.284601 209,591.322337 C209,592.622719 209,593.530559 209.130448,594.050141 C209.517539,595.350523 210.162691,596 211.064486,596 C211.840086,596 213.001359,595.740209 214.678753,595.478991 C223.322369,594.050141 232.743003,592.881082 242.80737,591.843346 C253.903981,590.542964 264.870143,589.375333 275.71011,588.464637 C280.998937,588.206274 286.032538,587.81516 290.935692,587.297006 C294.934215,586.90732 298.677513,586.516206 302.161332,586.257842 C303.966339,585.868156 305,584.699097 305,582.879134 C304.740521,581.062025 303.321188,580.151329 300.741998,580.151329 C296.9987,580.151329 292.998759,580.282652 288.871206,580.542443 C283.837604,580.800807 278.548778,581.321816 273.000473,581.971293 C268.097319,582.229656 262.936105,582.490875 257.645861,583.010456 C258.161982,577.424953 258.678104,571.319867 258.936164,564.433982 C259.837959,564.175618 260.87162,563.784505 262.031475,563.526141 C269.773296,561.447814 276.484292,559.239592 282.41827,556.770151 Z" id="Stroke-85" stroke="#DD22D2"></path>
            <path d="M365.368715,580.604269 C364.597765,579.695536 364.085211,579.307506 363.571244,579.307506 C362.284916,579.307506 361.386887,579.956601 361,581.253363 C361,582.163522 361.128492,582.812616 361.642458,583.200646 C363.442753,584.758473 365.498619,586.317726 367.810056,587.875553 C377.319848,593.845795 385.157837,597.221087 391.067039,598 L393.509792,598 C397.107557,597.741789 399.805881,595.922898 401.733256,592.678852 C404.301676,587.226459 405.715084,577.618434 405.715084,563.859058 C405.715084,558.796121 405.459513,552.173931 405.201117,543.865522 C404.688563,536.337453 403.275155,529.715263 401.090797,524.003232 C399.547486,520.498122 396.72067,517.383895 392.608939,514.656272 C389.52514,512.708989 386.442753,511.151162 383.357542,509.852973 C399.034932,498.428911 407,489.990683 407,484.538289 C407,480.90336 403.530726,477.659315 396.592179,474.803299 C389.39806,472.335313 381.301676,470.778913 372.307263,470 L370.893855,470 C368.325434,470.38803 367.167598,471.686219 367.167598,474.022959 C367.167598,475.450967 367.938547,476.490945 369.480447,477.140039 C385.800295,479.866236 395.307263,482.201549 397.877095,484.02044 C399.290503,484.799354 400.061453,485.578267 400.061453,486.485573 C399.547486,487.52555 398.648045,488.562675 397.363128,489.732471 C384.256983,500.247802 377.448339,506.477682 376.805881,508.295146 C376.163423,509.07406 375.90644,509.982792 375.90644,511.02277 C376.290503,512.189713 377.319848,513.228264 378.861747,514.007177 C386.442753,517.642106 391.709497,521.92613 394.664804,526.729429 C397.234637,531.274517 398.776536,536.986548 399.163423,543.996768 C399.67739,548.929886 399.932961,553.863004 399.932961,558.535057 C399.932961,562.689262 399.547486,568.662357 398.905028,576.711128 C397.234637,583.97956 394.664804,588.524648 391.067039,590.470504 C385.413408,589.173742 376.932961,585.926843 365.368715,580.604269 Z" id="Stroke-87" stroke="#27DB13"></path>
            <path d="M499.539474,513.308411 C499.539474,511.233645 497.615132,509.288551 493.766447,507.602804 C490.6875,506.565421 486.710526,505.917056 481.963816,505.787383 C474.779605,505.917056 469.519737,506.176402 466.3125,506.695093 C466.055921,505.528037 465.799342,504.490654 465.542763,503.582944 C465.286184,502.675234 464.644737,502.026869 463.618421,501.63785 C463.233553,501.63785 462.720395,501.508178 461.950658,501.508178 C461.180921,501.508178 460.411184,502.026869 459.898026,502.804907 C459.384868,503.323598 459,503.971963 459,504.75 C460.411184,511.233645 462.078947,519.273364 464.131579,528.998832 C465.157895,534.574766 465.799342,539.502336 466.184211,543.651869 C465.414474,543.911215 464.644737,544.300234 463.618421,544.818925 C462.592105,545.337617 461.950658,545.985981 461.950658,547.023364 C461.950658,548.320093 462.078947,549.227804 462.592105,549.746495 C463.105263,550.654206 463.875,551.041799 464.644737,551.041799 C464.901316,551.041799 465.286184,551.041799 465.799342,550.783879 C471.572368,548.709112 477.601974,545.726636 483.759868,541.577103 C489.148026,538.205607 493.509868,534.704439 496.973684,531.073598 C497.486842,530.295561 497.743421,529.647196 497.871711,528.998832 C497.871711,528.478715 497.743421,528.220794 497.743421,527.961449 C497.230263,527.442757 496.717105,527.053738 496.075658,526.924065 C495.947368,526.924065 495.819079,527.053738 495.690789,527.053738 C496.973684,524.46028 498,521.73715 498.769737,518.884346 C499.282895,516.679907 499.539474,514.864486 499.539474,513.308411 Z M471.315789,541.317757 C471.059211,537.168224 470.289474,530.943925 469.263158,522.64486 C468.493421,518.623575 467.851974,515.122407 467.338816,512.011682 C472.855263,512.011682 477.858553,511.882009 482.348684,511.882009 C487.480263,511.882009 491.072368,513.178738 493.253289,515.642523 C493.253289,516.679907 492.226974,519.403037 490.174342,523.811916 C487.865132,528.739486 485.555921,532.370327 482.990132,534.963785 C482.733553,535.093458 482.605263,535.223131 482.605263,535.352804 C479.654605,537.168224 476.447368,538.853972 473.111842,540.53972 C472.598684,540.799065 471.957237,541.058411 471.315789,541.317757 Z M559.835526,514.345794 C560.605263,513.308411 561.118421,512.269603 561.118421,511.233645 C560.990132,510.714953 560.605263,510.066589 559.835526,509.547897 C559.194079,509.158879 558.552632,508.899533 557.911184,508.899533 L557.526316,508.899533 C559.578947,506.176402 561.631579,503.064252 563.555921,499.692757 C566.121711,493.985725 567.404605,489.578271 567.404605,486.205351 C567.404605,484.391355 566.634868,482.704182 565.351974,481.01986 C563.684211,479.203014 561.246711,478.037383 558.039474,477.259346 C555.858553,477.129673 553.164474,477 549.957237,477 C544.825658,477 539.052632,477.776612 532.766447,479.203014 C526.351974,481.149533 520.963816,483.224299 516.858553,485.558411 L516.858553,484.650701 C516.730263,483.353972 515.832237,482.446262 514.292763,482.057243 L513.523026,482.057243 C512.240132,482.186916 511.470395,482.446262 510.957237,482.964953 C510.444079,483.613318 510.1875,484.391355 510.1875,485.299065 C509.930921,498.785047 509.802632,510.844626 509.802632,521.476379 C509.674342,531.462617 509.674342,542.095794 509.674342,553.507009 C509.674342,571.272196 515.447368,581.905374 527.25,585.795561 C531.996711,587.221963 537.641447,588 544.3125,588 C553.549342,588 560.861842,586.312827 566.25,583.07243 C570.098684,580.478972 572.792763,577.23715 574.332237,573.604883 C575.358553,571.01285 576,567.382009 576,562.584112 C576,559.212617 575.486842,555.063084 574.460526,550.265187 C573.434211,545.596963 572.151316,542.095794 570.868421,539.760257 C570.226974,539.113318 569.585526,538.724299 569.072368,538.724299 C568.046053,538.853972 567.661184,539.632009 567.661184,541.058411 C567.661184,543.003505 568.046053,546.504673 568.944079,551.432243 C569.457237,554.803738 569.713816,558.175234 569.713816,561.417056 C569.713816,566.733645 568.815789,570.753505 567.019737,573.604883 C564.453947,576.718458 560.733553,578.922897 555.986842,580.478972 C553.164474,581.257009 548.802632,581.646028 542.773026,581.646028 C529.174342,580.867991 520.963816,576.588785 518.398026,568.938084 C516.986842,565.307243 516.345395,560.379673 516.345395,554.025701 C516.345395,546.245327 516.345395,538.724299 516.473684,531.59229 C517.628289,531.462617 518.782895,531.073598 519.809211,530.554907 C529.6875,527.57243 539.309211,524.200935 548.546053,520.310748 C553.549342,518.235981 557.269737,516.290888 559.835526,514.345794 Z M545.338816,514.216121 C542.773026,515.383178 540.078947,516.548809 537.256579,517.587617 C537.769737,516.031542 538.154605,514.086449 538.667763,511.752336 C539.309211,508.251168 539.694079,504.620327 539.950658,500.988061 C539.950658,494.765187 539.822368,489.578271 539.694079,485.299065 C539.694079,485.169393 539.565789,484.910047 539.565789,484.650701 C543.671053,483.613318 548.032895,483.094626 552.523026,483.094626 C558.296053,483.224299 561.246711,484.521028 561.246711,487.114486 C560.733553,491.523364 558.424342,496.969626 554.319079,503.582944 C551.753289,507.473131 549.059211,510.714953 545.980263,513.567757 L545.338816,514.216121 Z M532.894737,486.595794 C533.023026,491.523364 533.151316,496.321262 533.151316,500.73014 C533.151316,503.064252 533.023026,505.267267 533.023026,507.342033 C532.638158,512.269603 531.996711,516.031542 531.098684,518.754673 C530.585526,519.273364 530.457237,519.792056 530.457237,520.310748 C526.351974,521.866822 522.118421,523.293224 517.628289,524.589953 C517.115132,524.719626 516.730263,524.849299 516.473684,524.849299 L516.473684,517.457944 C516.473684,509.418224 516.601974,501.378505 516.730263,493.079439 C516.986842,493.079439 517.243421,492.949766 517.756579,492.690421 C522.118421,490.356308 527.25,488.281542 532.894737,486.595794 Z" id="Stroke-89" stroke="#128AEE"></path>
            <path d="M618,489.140162 C618,486.423181 616.844179,485 614.658293,485 C613.113902,485 611.442342,486.03504 609.642201,487.846361 C608.613549,490.045822 608.099223,491.727763 607.843473,493.021563 C607.584897,494.315364 607.456315,495.093066 607.456315,495.350404 C607.456315,496.126685 607.584897,496.902965 607.843473,497.549865 C606.556245,504.277628 605.399011,511.781671 604.627522,519.803235 C604.24319,524.202156 603.856033,530.541779 603.471701,539.080863 C603.084544,545.938005 602.957375,549.690027 602.957375,550.466307 C602.957375,553.053908 604.113196,554.347709 606.556245,554.347709 C608.870712,554.347709 610.156527,552.924528 610.41369,549.819407 C610.543685,545.680667 611.056598,538.045822 611.958081,526.919137 C612.729571,515.921833 614.528299,504.665768 617.228511,493.280323 C617.742837,491.080863 618,489.657682 618,489.140162 Z M611.958081,575.307278 C611.958081,571.555256 610.799435,569.226415 608.74213,568.320755 C607.714891,567.673854 606.941989,567.285714 606.1705,567.285714 C602.313054,567.285714 600.25575,569.226415 600,573.109238 C600,574.272237 600,575.177898 600.25575,575.824798 C600.512913,576.859838 601.155821,577.765499 602.441636,578.412399 C603.471701,580.09434 604.886098,581 606.684826,581 C610.156527,581 611.958081,579.059299 611.958081,575.307278 Z" id="Stroke-91" stroke="#9013FE"></path>
        </g>
    </g>
</svg>